<?xml version="1.0" encoding="iso-8859-1"?>
<!-- Uploaded to: SVG Repo, www.svgrepo.com, Generator: SVG Repo Mixer Tools -->
<svg version="1.1" id="Layer_1" xmlns="http://www.w3.org/2000/svg" xmlns:xlink="http://www.w3.org/1999/xlink" 
	 viewBox="0 0 512 512" xml:space="preserve">
<rect x="32.821" y="65.641" style="fill:#F8F8F9;" width="446.359" height="446.359"/>
<rect x="256" y="65.641" style="fill:#EDEDED;" width="223.179" height="446.359"/>
<path style="fill:#D8D8DA;" d="M91.897,256v196.923h328.205V256H91.897z M380.718,334.769h-56.89v-39.385h56.89V334.769z
	 M227.555,334.769v-39.385h56.888v39.385H227.555z M284.444,374.154v39.385h-56.888v-39.385H284.444z M188.171,295.385v39.385
	h-56.888v-39.385H188.171z M131.282,374.154h56.888v39.385h-56.888V374.154z M323.828,413.538v-39.385h56.89v39.385H323.828z"/>
<rect x="32.821" y="65.641" style="fill:#E07188;" width="446.359" height="131.282"/>
<rect x="256" y="65.641" style="fill:#E02753;" width="223.179" height="131.282"/>
<g>
	<path style="fill:#88888F;" d="M177.231,0h-39.385v107.408c-4.072,4.626-6.564,10.676-6.564,17.31
		c0,14.478,11.779,26.256,26.256,26.256s26.256-11.779,26.256-26.256c0-6.634-2.492-12.682-6.564-17.31V0z"/>
	<path style="fill:#88888F;" d="M374.154,107.408V0h-39.385v107.408c-4.072,4.626-6.564,10.676-6.564,17.31
		c0,14.478,11.779,26.256,26.256,26.256s26.256-11.779,26.256-26.256C380.718,118.084,378.226,112.036,374.154,107.408z"/>
</g>
<path style="fill:#C6C5CA;" d="M420.103,256H256v39.385h28.444v39.385H256v39.385h28.444v39.385H256v39.385h164.103V256z
	 M380.718,413.538h-56.89v-39.385h56.89V413.538z M380.718,334.769h-56.89v-39.385h56.89V334.769z"/>
</svg>