<?xml version="1.0" encoding="UTF-8"?>
<svg xmlns="http://www.w3.org/2000/svg" width="552" height="390" viewBox="0 0 552 390" fill="none">
  <path d="M522.047 387.359H29.6975C14.6729 387.359 3 374.463 3 359.291V31.0698C3 15.8977 14.6729 3 29.6975 3H522.047C537.071 3 548.744 15.8977 548.744 31.0698V359.291C548.744 374.463 537.071 387.359 522.047 387.359Z" fill="white" stroke="#E1E4E5" stroke-width="4.70169"></path>
  <path d="M449.81 346.006L442.198 346.005L438.577 316.685L449.811 316.686L449.81 346.006Z" fill="#FFB8B8"></path>
  <path d="M451.752 353.374L427.207 353.373V353.063C427.207 350.533 428.214 348.106 430.005 346.317C431.797 344.528 434.227 343.523 436.761 343.523H436.761L451.752 343.524L451.752 353.374Z" fill="#2F2E41"></path>
  <path d="M483.406 327.317L478.466 333.1L453.78 316.819L461.073 308.285L483.406 327.317Z" fill="#FFB8B8"></path>
  <path d="M490.28 330.626L474.348 349.271L474.111 349.069C472.184 347.427 470.989 345.087 470.789 342.565C470.589 340.043 471.401 337.544 473.045 335.62L473.046 335.619L482.776 324.231L490.28 330.626Z" fill="#2F2E41"></path>
  <path d="M395.761 201.812L393.392 223.634L489.178 222.27L447.405 154.299L413.298 153.076L395.761 201.812Z" fill="#2F2E41"></path>
  <path opacity="0.28" d="M395.761 201.812L393.392 223.634L489.178 222.27L447.405 154.299L413.298 153.076L395.761 201.812Z" fill="black"></path>
  <path d="M414.596 205.558L411.215 225.526V243.374L438.48 252.261C438.48 252.261 435.288 321.586 439.543 326.002L439.438 336.661L451.332 337.201L451.43 329.699L456.472 273.628L459.442 232.461L454.627 201.249L414.596 205.558Z" fill="#2F2E41"></path>
  <path d="M435.72 222.747L411.215 243.374C411.215 243.374 409.781 280.59 413.423 284.955C416.551 288.703 457.235 321.037 457.235 321.037C457.235 321.037 464.466 327.66 468.518 327.766C472.57 327.872 477.283 319.384 477.283 319.384L467.899 312.264C467.899 312.264 443.587 289.601 436.368 280.59C433.454 276.953 433.454 276.589 433.454 276.589L434.449 261.465L444.465 233.395L435.72 222.747Z" fill="#2F2E41"></path>
  <path d="M409.703 123.941L399.138 122.966L389.555 124.561L369.262 124.568L367.533 139.255L386.052 143.393L390.565 141.185L409.376 148.342L409.703 123.941Z" fill="#2F2E41"></path>
  <path d="M422.322 123.896C422.322 123.896 444.744 121.797 449.843 125.798C454.942 129.799 465.868 209.086 465.868 209.086L422.322 211.541L414.515 206.177L416.731 166.593L422.322 123.896Z" fill="#CCCCCC"></path>
  <path d="M429.166 123.401L404.433 123.943L381.373 227.999L399.583 232L429.166 123.401Z" fill="#2F2E41"></path>
  <path d="M446.749 122.522L466.232 128.611L465.126 171.364L489.178 222.479L460.903 225.453L438.553 170.259L446.749 122.522Z" fill="#2F2E41"></path>
  <path d="M478.877 227.671C479.56 227.07 480.103 226.328 480.467 225.495C480.832 224.662 481.009 223.76 480.987 222.851C480.964 221.943 480.742 221.051 480.337 220.237C479.932 219.423 479.353 218.708 478.641 218.142L482.561 204.487L474.832 200.085L469.568 219.446C468.695 220.703 468.314 222.236 468.498 223.755C468.682 225.274 469.417 226.673 470.564 227.687C471.712 228.701 473.192 229.259 474.724 229.256C476.256 229.253 477.733 228.689 478.877 227.671Z" fill="#FFB8B8"></path>
  <path d="M454.942 129.799L466.471 128.8C466.471 128.8 476.82 139.61 479.175 147.98C481.529 156.349 484.079 182.536 484.079 182.536L483.015 220.844L469.54 211.706L468.636 178.756L454.942 129.799Z" fill="#2F2E41"></path>
  <path d="M452.161 110.544C456.49 102.636 453.58 92.72 445.661 88.3968C437.741 84.0737 427.812 86.9802 423.483 94.8886C419.154 102.797 422.064 112.713 429.983 117.036C437.903 121.359 447.832 118.452 452.161 110.544Z" fill="#FFB8B8"></path>
  <path d="M436 95.903C433.856 95.4083 431.63 95.9565 429.459 96.312C427.287 96.6674 424.894 96.7845 423.057 95.5745C421.7 94.6809 420.866 93.2026 420.083 91.7806C419.756 91.2728 419.538 90.7027 419.443 90.1066C419.351 89.0549 420.021 88.0954 420.732 87.3145C424.037 83.6872 428.866 81.7019 433.735 81.0713C437.751 80.4736 441.854 80.9739 445.608 82.5191C449.305 84.1383 452.483 87.1033 453.936 90.864C454.605 92.7887 455.024 94.7916 455.18 96.8231C455.399 98.3178 455.428 99.8344 455.264 101.336C455.068 102.45 454.775 103.544 454.388 104.606L451.98 111.865C451.807 112.551 451.484 113.19 451.034 113.737C450.802 114.004 450.49 114.19 450.145 114.265C449.799 114.341 449.438 114.303 449.116 114.156C449.309 113.368 449.338 112.548 449.202 111.748C449.127 111.349 448.934 110.982 448.648 110.694C448.361 110.406 447.995 110.21 447.597 110.131C446.709 110.037 445.951 110.724 445.109 111.02C444.724 111.134 444.32 111.171 443.921 111.129C443.521 111.087 443.134 110.967 442.78 110.776C442.427 110.584 442.115 110.325 441.862 110.014C441.609 109.702 441.42 109.343 441.306 108.959C441.283 108.881 441.263 108.803 441.246 108.723C441.114 107.893 441.337 107.005 441.022 106.226C440.653 105.312 439.674 104.834 438.939 104.178C438.268 103.56 437.787 102.763 437.554 101.881C437.321 101 437.345 100.07 437.623 99.2017C437.82 98.5976 438.376 98.3229 438.265 97.6288C438.119 96.7183 436.774 96.0817 436 95.903Z" fill="#2F2E41"></path>
  <path d="M254.316 164.887H48V36H254.316V164.887Z" fill="white"></path>
  <path d="M254.316 164.887H48V36H254.316V164.887ZM48.9421 163.946H253.374V36.9408H48.9421V163.946Z" fill="#3D3C42"></path>
  <path d="M229.115 343.401H111.355V214.514H229.115V343.401Z" fill="white"></path>
  <path d="M229.115 343.401H111.355V214.514H229.115V343.401ZM112.297 342.46H228.173V215.454H112.297V342.46Z" fill="#3D3C42"></path>
  <path d="M213.1 331.228H188.605V332.22H213.1V331.228Z" fill="#3D3C42"></path>
  <path d="M213.1 334.203H188.605V335.195H213.1V334.203Z" fill="#3D3C42"></path>
  <path d="M213.1 337.178H188.605V338.169H213.1V337.178Z" fill="#3D3C42"></path>
  <path d="M170.235 237.563V247.912C176.384 247.912 182.395 249.732 187.507 253.144C192.62 256.555 196.604 261.404 198.957 267.077C201.31 272.75 201.926 278.992 200.726 285.014C199.527 291.036 196.566 296.568 192.218 300.91L199.546 308.228C205.343 302.439 209.291 295.063 210.89 287.033C212.49 279.003 211.669 270.68 208.531 263.116C205.394 255.553 200.081 249.088 193.264 244.539C186.448 239.991 178.433 237.563 170.235 237.563Z" fill="#E6E6E6"></path>
  <path d="M199.546 308.228L192.218 300.91C186.903 306.219 179.841 309.424 172.341 309.932C164.841 310.44 157.41 308.216 151.426 303.672L145.154 311.914C153.134 317.971 163.042 320.935 173.042 320.257C183.042 319.579 192.458 315.306 199.546 308.228Z" fill="#575A89"></path>
  <path d="M139.146 278.957C139.146 274.88 139.95 270.843 141.513 267.077C143.075 263.31 145.365 259.888 148.252 257.005C151.139 254.122 154.566 251.835 158.338 250.275C162.11 248.715 166.152 247.912 170.235 247.912V237.563C161.558 237.563 153.099 240.282 146.051 245.338C139.004 250.393 133.723 257.53 130.953 265.742C128.182 273.954 128.063 282.827 130.61 291.111C133.158 299.394 138.245 306.671 145.154 311.914L151.426 303.672C147.607 300.779 144.511 297.043 142.38 292.755C140.25 288.467 139.143 283.744 139.146 278.957Z" fill="#C6C6C6"></path>
  <path d="M403.4 263.434H285.64V134.547H403.4V263.434Z" fill="white"></path>
  <path d="M403.4 263.434H285.64V134.547H403.4V263.434ZM286.582 262.494H402.458V135.488H286.582V262.494Z" fill="#3D3C42"></path>
  <path d="M323.794 213.338H302.597V247.206H323.794V213.338Z" fill="#575A89"></path>
  <path d="M354.412 190.289H333.215V247.206H354.412V190.289Z" fill="#E6E6E6"></path>
  <path d="M385.03 163.476H363.833V247.206H385.03V163.476Z" fill="#C6C6C6"></path>
  <path d="M392.095 248.147H296.945V149.835H297.887V247.206H392.095V248.147Z" fill="#3D3C42"></path>
  <path d="M369.155 137.979C372.738 137.979 375.642 135.078 375.642 131.5C375.642 127.922 372.738 125.021 369.155 125.021C365.572 125.021 362.667 127.922 362.667 131.5C362.667 135.078 365.572 137.979 369.155 137.979Z" fill="#FFB8B8"></path>
  <path d="M502.459 354H401.359C401.216 354 401.078 353.943 400.977 353.842C400.875 353.741 400.818 353.603 400.818 353.46C400.818 353.317 400.875 353.18 400.977 353.079C401.078 352.977 401.216 352.92 401.359 352.92H502.459C502.603 352.92 502.74 352.977 502.842 353.079C502.943 353.18 503 353.317 503 353.46C503 353.603 502.943 353.741 502.842 353.842C502.74 353.943 502.603 354 502.459 354Z" fill="#CCCCCC"></path>
  <path d="M225.663 137.932H76.6524C76.5287 137.932 76.4101 137.883 76.3226 137.796C76.2352 137.708 76.186 137.59 76.186 137.467V66.1439C76.186 66.0204 76.2352 65.902 76.3226 65.8146C76.4101 65.7273 76.5287 65.6782 76.6524 65.6782C76.776 65.6782 76.8947 65.7273 76.9821 65.8146C77.0696 65.902 77.1187 66.0204 77.1187 66.1439V137.001H225.663C225.725 137.001 225.786 137.013 225.842 137.036C225.899 137.059 225.951 137.093 225.994 137.137C226.038 137.18 226.072 137.231 226.096 137.288C226.119 137.345 226.131 137.405 226.131 137.467C226.131 137.528 226.119 137.588 226.096 137.645C226.072 137.702 226.038 137.753 225.994 137.796C225.951 137.84 225.899 137.874 225.842 137.897C225.786 137.921 225.725 137.932 225.663 137.932Z" fill="#3D3C42"></path>
  <path d="M108.489 132.809H94.9363C94.5693 132.809 94.2175 132.663 93.9579 132.404C93.6984 132.145 93.5524 131.793 93.552 131.427V112.77C93.5524 112.403 93.6984 112.052 93.9579 111.793C94.2175 111.533 94.5693 111.388 94.9363 111.387H108.489C108.856 111.388 109.208 111.533 109.468 111.793C109.727 112.052 109.873 112.403 109.874 112.77V131.427C109.873 131.793 109.727 132.145 109.468 132.404C109.208 132.663 108.856 132.809 108.489 132.809Z" fill="#C6C6C6"></path>
  <path d="M133.205 132.809H119.652C119.285 132.809 118.933 132.663 118.674 132.404C118.414 132.145 118.268 131.793 118.268 131.427V95.0732C118.268 94.7067 118.414 94.3554 118.674 94.0962C118.933 93.8371 119.285 93.6913 119.652 93.6909H133.205C133.572 93.6913 133.924 93.8371 134.184 94.0962C134.443 94.3554 134.589 94.7067 134.59 95.0732V131.427C134.589 131.793 134.443 132.145 134.184 132.404C133.924 132.663 133.572 132.809 133.205 132.809Z" fill="#C6C6C6"></path>
  <path d="M157.921 132.809H144.368C144.001 132.809 143.649 132.663 143.39 132.404C143.13 132.145 142.984 131.793 142.984 131.427V112.77C142.984 112.403 143.13 112.052 143.39 111.793C143.649 111.533 144.001 111.388 144.368 111.387H157.921C158.288 111.388 158.64 111.533 158.9 111.793C159.159 112.052 159.305 112.403 159.306 112.77V131.427C159.305 131.793 159.159 132.145 158.9 132.404C158.64 132.663 158.288 132.809 157.921 132.809Z" fill="#C6C6C6"></path>
  <path d="M182.637 132.81H169.084C168.725 132.817 168.378 132.683 168.119 132.435C167.859 132.188 167.709 131.848 167.7 131.49V88.0256C167.709 87.6674 167.859 87.3275 168.119 87.0801C168.378 86.8327 168.725 86.6982 169.084 86.7059H182.637C182.996 86.6982 183.343 86.8327 183.602 87.0801C183.862 87.3275 184.013 87.6674 184.021 88.0256V131.49C184.013 131.848 183.862 132.188 183.602 132.435C183.343 132.683 182.996 132.817 182.637 132.81Z" fill="#C6C6C6"></path>
  <path d="M207.353 132.809H193.8C193.433 132.809 193.081 132.663 192.821 132.404C192.562 132.145 192.416 131.793 192.416 131.427V75.5141C192.416 75.1476 192.562 74.7963 192.821 74.5371C193.081 74.278 193.433 74.1322 193.8 74.1318H207.353C207.72 74.1322 208.072 74.278 208.331 74.5371C208.591 74.7963 208.737 75.1476 208.737 75.5141V131.427C208.737 131.793 208.591 132.145 208.331 132.404C208.072 132.663 207.72 132.809 207.353 132.809Z" fill="#C6C6C6"></path>
  <path d="M101.713 105.799C103.258 105.799 104.511 104.548 104.511 103.005C104.511 101.462 103.258 100.211 101.713 100.211C100.168 100.211 98.915 101.462 98.915 103.005C98.915 104.548 100.168 105.799 101.713 105.799Z" fill="#3D3C42"></path>
  <path d="M126.429 87.6372C127.974 87.6372 129.227 86.3862 129.227 84.843C129.227 83.2998 127.974 82.0488 126.429 82.0488C124.884 82.0488 123.631 83.2998 123.631 84.843C123.631 86.3862 124.884 87.6372 126.429 87.6372Z" fill="#3D3C42"></path>
  <path d="M151.145 105.799C152.69 105.799 153.943 104.548 153.943 103.005C153.943 101.462 152.69 100.211 151.145 100.211C149.599 100.211 148.347 101.462 148.347 103.005C148.347 104.548 149.599 105.799 151.145 105.799Z" fill="#3D3C42"></path>
  <path d="M175.861 78.789C177.406 78.789 178.659 77.538 178.659 75.9948C178.659 74.4517 177.406 73.2007 175.861 73.2007C174.315 73.2007 173.062 74.4517 173.062 75.9948C173.062 77.538 174.315 78.789 175.861 78.789Z" fill="#3D3C42"></path>
  <path d="M200.576 68.5434C202.122 68.5434 203.374 67.2924 203.374 65.7492C203.374 64.2061 202.122 62.9551 200.576 62.9551C199.031 62.9551 197.778 64.2061 197.778 65.7492C197.778 67.2924 199.031 68.5434 200.576 68.5434Z" fill="#3D3C42"></path>
  <path d="M151.203 103.631L126.429 85.0999L101.992 103.378L101.433 102.632L126.429 83.9359L151.085 102.379L175.588 75.6025L175.686 75.5626L200.402 65.6177L200.751 66.4821L176.133 76.387L151.203 103.631Z" fill="#3D3C42"></path>
</svg>
